<?xml version="1.0" encoding="UTF-8" standalone="no"?>
<svg
   xmlns:dc="http://purl.org/dc/elements/1.1/"
   xmlns:cc="http://creativecommons.org/ns#"
   xmlns:rdf="http://www.w3.org/1999/02/22-rdf-syntax-ns#"
   xmlns:svg="http://www.w3.org/2000/svg"
   xmlns="http://www.w3.org/2000/svg"
   xmlns:sodipodi="http://sodipodi.sourceforge.net/DTD/sodipodi-0.dtd"
   xmlns:inkscape="http://www.inkscape.org/namespaces/inkscape"
   sodipodi:docname="anon_0.svg"
   inkscape:version="1.0 (4035a4fb49, 2020-05-01)"
   id="svg844"
   version="1.1"
   viewBox="0 0 135.46666 135.46666"
   height="512"
   width="512">
  <defs
     id="defs838" />
  <sodipodi:namedview
     inkscape:window-maximized="1"
     inkscape:window-y="-11"
     inkscape:window-x="2869"
     inkscape:window-height="2126"
     inkscape:window-width="3840"
     units="px"
     showgrid="false"
     inkscape:document-rotation="0"
     inkscape:current-layer="layer1"
     inkscape:document-units="mm"
     inkscape:cy="258.13957"
     inkscape:cx="282.92826"
     inkscape:zoom="2.8"
     inkscape:pageshadow="2"
     inkscape:pageopacity="0.0"
     borderopacity="1.0"
     bordercolor="#666666"
     pagecolor="#ffffff"
     id="base" />
  <metadata
     id="metadata841">
    <rdf:RDF>
      <cc:Work
         rdf:about="">
        <dc:format>image/svg+xml</dc:format>
        <dc:type
           rdf:resource="http://purl.org/dc/dcmitype/StillImage" />
        <dc:title></dc:title>
      </cc:Work>
    </rdf:RDF>
  </metadata>
  <g
     id="layer1"
     inkscape:groupmode="layer"
     inkscape:label="Ebene 1">
    <path
       d="m 67.935744,2.7506625 c -12.193421,0 -24.386532,4.0670728 -34.259909,12.2019285 -10.44184,8.603205 -16.624715,20.58018 -17.656003,34.202626 l -0.290718,3.845163 -1.970184,1.676273 c -2.549269,2.169149 -4.95809,6.76124 -5.8792104,11.206541 -0.8730076,4.213132 -0.6000682,11.778847 0.55712,15.433597 1.9736504,6.233342 5.5622654,10.388483 9.8882044,11.449369 0.982909,0.24104 1.440429,0.631484 1.718913,1.466073 0.985366,2.95289 3.780372,9.160197 5.453401,12.112067 7.217349,12.73417 18.608223,22.48537 30.138517,25.79986 1.611189,0.46317 4.259843,1.08224 5.885695,1.37568 6.748872,1.21811 16.764968,-0.10942 23.42984,-3.1049 10.214897,-4.59102 19.20917,-13.10665 25.42326,-24.07064 1.67302,-2.95187 4.4675,-9.159177 5.45286,-12.112067 0.27849,-0.834589 0.73654,-1.225033 1.71946,-1.466073 4.32596,-1.060886 7.91456,-5.216027 9.88819,-11.449369 1.1572,-3.65475 1.43015,-11.220465 0.55713,-15.433597 -0.92112,-4.445301 -3.33047,-9.037392 -5.87975,-11.206541 l -1.96965,-1.676273 -0.29125,-3.845163 C 118.82036,35.532771 112.63804,23.555796 102.19619,14.952591 92.322822,6.8177353 80.129165,2.7506625 67.935744,2.7506625 Z M 67.634759,21.678548 c 5.37807,-0.05773 10.869329,1.075786 16.065699,3.571844 6.740535,3.237806 13.025986,9.444367 16.095958,15.894117 2.218704,4.661298 3.459334,10.967595 3.056864,15.540572 -0.29055,3.301534 0.58617,4.565065 3.57779,5.153981 1.15837,0.228026 2.72202,3.230729 3.2568,6.254738 0.73792,4.172849 -0.0777,9.721151 -1.77782,12.09549 -0.72911,1.018262 -0.84692,1.063965 -2.54892,0.984693 -2.76154,-0.128631 -3.70911,0.580774 -4.58232,3.431709 -2.667497,8.709093 -6.496161,15.581258 -11.570916,20.768358 -4.312814,4.40832 -9.682315,7.63965 -14.725044,8.86116 -10.012077,2.42521 -19.692558,-0.63425 -27.716045,-8.759 -5.069974,-5.13395 -9.276307,-12.610077 -11.564428,-20.553876 -0.311765,-1.082366 -0.913052,-2.297302 -1.335791,-2.700013 -0.918265,-0.874713 -2.422173,-1.217956 -3.549142,-0.809789 -1.174095,0.425228 -1.614697,0.159065 -2.604036,-1.57251 -2.408741,-4.215857 -2.401767,-12.052691 0.01459,-16.281898 0.622136,-1.088879 1.149907,-1.615768 1.739986,-1.737248 3.101089,-0.638443 3.811455,-1.653667 3.541036,-5.059845 -0.247342,-3.115406 0.278571,-7.650764 1.262306,-10.884549 4.493385,-14.77077 18.494659,-24.038316 33.363436,-24.197934 z"
       style="fill:#dcdcdc;stroke-width:0.395833;stroke:#d3d3d3;fill-opacity:1"
       id="path1421" />
    <g
       style="stroke:#d3d3d3;stroke-width:1.35442;stroke-miterlimit:4;stroke-dasharray:none;fill:#dcdcdc;fill-opacity:1"
       transform="matrix(1.333374,0,0,1.1525894,-22.158563,-8.8936153)"
       id="g1433">
      <path
         style="fill:#dcdcdc;stroke:#d3d3d3;stroke-width:1.35442;stroke-miterlimit:4;stroke-dasharray:none;fill-opacity:1"
         d="m 62.220686,82.505549 c -0.474219,-0.09142 -1.326543,-0.693925 -1.894046,-1.338783 -0.957386,-1.087859 -1.018763,-1.367177 -0.850702,-3.871022 0.340944,-5.079551 3.236608,-9.157187 9.57972,-13.48996 5.418454,-3.701167 6.673418,-5.922222 6.673418,-11.810732 0,-6.10193 -2.50122,-8.793624 -8.171371,-8.793624 -5.204025,0 -7.584167,2.194763 -8.36775,7.716043 -0.35544,2.504566 -1.842617,3.938985 -4.083846,3.938985 -1.267644,0 -1.861689,-0.234605 -2.753721,-1.087518 -1.168479,-1.11722 -1.296397,-1.609958 -1.166472,-4.493132 0.168958,-3.749509 2.474541,-8.118624 5.559734,-10.535818 5.953332,-4.664308 15.670777,-4.664308 21.62411,0 3.817033,2.990569 5.66585,7.245335 5.625106,12.945359 -0.06341,8.878309 -2.610329,13.540967 -10.159045,18.598458 -3.546383,2.376 -5.747724,4.868489 -6.08983,6.895242 -0.454161,2.690521 -1.024873,4.111677 -1.858099,4.626857 -1.042731,0.6447 -2.50535,0.923747 -3.667206,0.699645 z"
         id="path1429" />
      <path
         style="fill:#dcdcdc;stroke:#d3d3d3;stroke-width:1.35442;stroke-miterlimit:4;stroke-dasharray:none;fill-opacity:1"
         d="m 62.232146,98.316687 c -1.707014,-0.429958 -2.845552,-1.922537 -2.845552,-3.730392 0,-4.194588 6.417581,-5.176973 7.792765,-1.192897 1.062575,3.078385 -1.630704,5.758626 -4.947213,4.923289 z"
         id="path1427" />
    </g>
  </g>
</svg>
