<?xml version="1.0" encoding="UTF-8" standalone="no"?>
<svg
   xmlns:dc="http://purl.org/dc/elements/1.1/"
   xmlns:cc="http://creativecommons.org/ns#"
   xmlns:rdf="http://www.w3.org/1999/02/22-rdf-syntax-ns#"
   xmlns:svg="http://www.w3.org/2000/svg"
   xmlns="http://www.w3.org/2000/svg"
   xmlns:sodipodi="http://sodipodi.sourceforge.net/DTD/sodipodi-0.dtd"
   xmlns:inkscape="http://www.inkscape.org/namespaces/inkscape"
   sodipodi:docname="anon_on.svg"
   inkscape:version="1.0 (4035a4fb49, 2020-05-01)"
   id="svg844"
   version="1.1"
   viewBox="0 0 135.46666 135.46666"
   height="512"
   width="512">
  <defs
     id="defs838" />
  <sodipodi:namedview
     inkscape:window-maximized="1"
     inkscape:window-y="-11"
     inkscape:window-x="2869"
     inkscape:window-height="2126"
     inkscape:window-width="3840"
     units="px"
     showgrid="false"
     inkscape:document-rotation="0"
     inkscape:current-layer="layer1"
     inkscape:document-units="mm"
     inkscape:cy="246.73464"
     inkscape:cx="351.9311"
     inkscape:zoom="1.979899"
     inkscape:pageshadow="2"
     inkscape:pageopacity="0.0"
     borderopacity="1.0"
     bordercolor="#666666"
     pagecolor="#ffffff"
     id="base" />
  <metadata
     id="metadata841">
    <rdf:RDF>
      <cc:Work
         rdf:about="">
        <dc:format>image/svg+xml</dc:format>
        <dc:type
           rdf:resource="http://purl.org/dc/dcmitype/StillImage" />
        <dc:title></dc:title>
      </cc:Work>
    </rdf:RDF>
  </metadata>
  <g
     id="layer1"
     inkscape:groupmode="layer"
     inkscape:label="Ebene 1">
    <path
       id="path1421"
       d="m 2.8019316,131.12609 -0.8421591,-0.74411 0.028975,-4.79137 c 0.023299,-3.85334 0.1361688,-5.27917 0.5765316,-7.28311 2.0997466,-9.55538 7.6178549,-17.54217 15.6405809,-22.637857 3.604288,-2.289291 5.017997,-2.869434 16.310774,-6.693431 5.276177,-1.786628 6.378626,-2.082265 7.053133,-1.891341 0.440846,0.124781 1.745184,1.122348 2.907762,2.223885 7.075906,6.704369 14.752729,9.98419 23.369177,9.98419 8.616456,0 16.29328,-3.279821 23.369179,-9.98419 1.162577,-1.101537 2.466916,-2.099104 2.90777,-2.223885 0.674506,-0.190924 1.776947,0.104713 7.053135,1.891341 11.29277,3.823997 12.70649,4.40414 16.31076,6.693431 8.02274,5.095687 13.54084,13.082477 15.64059,22.637857 0.44036,2.00394 0.55322,3.42977 0.57653,7.28311 l 0.029,4.79137 -0.84216,0.74411 -0.84216,0.74411 H 67.846714 3.6440907 Z M 128.34092,124.17144 c -0.70628,-9.62006 -4.7618,-17.30056 -11.95846,-22.64736 -3.18413,-2.365658 -5.68064,-3.566274 -11.78863,-5.669342 -2.69478,-0.927847 -5.843079,-2.014459 -6.996218,-2.414692 l -2.096595,-0.727693 -0.740024,0.778691 c -1.165043,1.225943 -5.192953,4.316176 -7.315864,5.612776 -12.245705,7.47922 -26.951116,7.47922 -39.196829,0 -2.12291,-1.2966 -6.150819,-4.386833 -7.315863,-5.612776 l -0.740024,-0.778691 -2.096603,0.727693 c -1.153131,0.400233 -4.301425,1.486845 -6.996215,2.414692 -6.107984,2.103068 -8.604503,3.303684 -11.788626,5.669342 -7.196656,5.3468 -11.2521773,13.0273 -11.9584553,22.64736 L 7.1796763,126.5256 H 67.846714 128.51375 Z M 63.781289,93.585406 C 62.750864,93.391465 61.072324,92.982335 60.051193,92.67623 52.743574,90.485616 45.524279,84.040978 40.950094,75.624734 39.889769,73.673799 38.118575,69.571156 37.494073,67.619535 37.317576,67.067939 37.027386,66.809888 36.404442,66.650582 33.662766,65.94942 31.388538,63.203354 30.137686,59.08362 c -0.733398,-2.415495 -0.9066,-7.415992 -0.353309,-10.200531 0.583784,-2.937983 2.110736,-5.972962 3.726402,-7.406593 l 1.248404,-1.107757 0.184495,-2.541472 c 0.653605,-9.003335 4.571949,-16.919013 11.189735,-22.605036 12.515018,-10.7529607 30.911593,-10.7529607 43.426604,0 6.617785,5.686023 10.536133,13.601701 11.189733,22.605036 l 0.1845,2.541472 1.2484,1.107757 c 1.61566,1.433631 3.14262,4.46861 3.7264,7.406593 0.5533,2.784539 0.38009,7.785036 -0.35331,10.200531 -1.25085,4.119734 -3.52507,6.8658 -6.266753,7.566962 -0.622944,0.159306 -0.913132,0.417357 -1.08963,0.968953 -0.624503,1.951621 -2.395697,6.054264 -3.456021,8.005199 -3.938339,7.246308 -9.638603,12.874484 -16.112558,15.908778 -4.224034,1.979766 -10.572219,2.856958 -14.849489,2.051894 z m 9.207958,-5.776019 c 3.958249,-0.993354 8.173033,-3.621043 11.558347,-7.206022 3.983387,-4.218302 6.9887,-9.806785 9.082541,-16.889287 0.685411,-2.318465 1.429138,-2.895557 3.596782,-2.790951 1.335967,0.06447 1.428604,0.02742 2.000916,-0.800667 1.334507,-1.930883 1.974547,-6.442865 1.395317,-9.836352 C 100.20339,47.82689 98.976083,45.384647 98.066823,45.199209 95.71858,44.720284 95.030212,43.693074 95.258282,41.008167 95.574193,37.289283 94.600576,32.160786 92.859027,28.370077 90.449274,23.124941 85.515628,18.077559 80.224697,15.444476 64.86903,7.8026109 46.228593,15.861283 41.425803,32.218105 c -0.772176,2.629813 -1.185089,6.318234 -0.990943,8.851779 0.212268,2.770006 -0.345387,3.595539 -2.779565,4.114742 -0.46318,0.09879 -0.877329,0.527214 -1.36567,1.412727 -1.896697,3.439317 -1.902255,9.81258 -0.01152,13.241044 0.776573,1.408169 1.122536,1.624594 2.044133,1.278788 0.884606,-0.331935 2.065026,-0.05292 2.78581,0.658425 0.33183,0.327495 0.80355,1.315613 1.048268,2.195825 1.796043,6.46014 5.097831,12.539999 9.077466,16.715087 6.297976,6.607299 13.89659,9.09513 21.755493,7.122865 z m -8.672077,-15.7948 c -1.131281,-0.294123 -1.885818,-1.315154 -1.885818,-2.551857 0,-2.869401 4.25309,-3.541423 5.164459,-0.816027 0.704195,2.105836 -1.080708,3.939314 -3.278641,3.367884 z m -0.0076,-10.815959 c -0.314277,-0.06254 -0.879133,-0.474694 -1.255232,-0.915824 -0.634483,-0.744174 -0.675159,-0.935248 -0.563781,-2.648058 0.225952,-3.474779 2.144981,-6.264176 6.348719,-9.228105 3.590944,-2.531865 4.42264,-4.051228 4.42264,-8.079393 0,-4.17416 -1.657621,-6.015473 -5.415371,-6.015473 -3.448837,0 -5.026216,1.501376 -5.545516,5.27833 -0.235559,1.713304 -1.221148,2.69455 -2.706466,2.69455 -0.840099,0 -1.233788,-0.160487 -1.82496,-0.743941 -0.77438,-0.764259 -0.859154,-1.101328 -0.77305,-3.073626 0.111973,-2.564935 1.63994,-5.553724 3.684574,-7.207259 3.945422,-3.190724 10.385414,-3.190724 14.330836,0 2.529643,2.045765 3.7549,4.956331 3.727898,8.855559 -0.04202,6.073403 -1.72993,9.262998 -6.732652,12.722686 -2.350276,1.625355 -3.80916,3.330398 -4.035882,4.716843 -0.300984,1.84051 -0.679209,2.812684 -1.231408,3.165104 -0.691044,0.441021 -1.660358,0.63191 -2.430349,0.478607 z"
       style="fill:#000000;stroke-width:0.256184" />
  </g>
</svg>
