<?xml version="1.0" encoding="UTF-8" standalone="no"?>
<svg
   xmlns:dc="http://purl.org/dc/elements/1.1/"
   xmlns:cc="http://creativecommons.org/ns#"
   xmlns:rdf="http://www.w3.org/1999/02/22-rdf-syntax-ns#"
   xmlns:svg="http://www.w3.org/2000/svg"
   xmlns="http://www.w3.org/2000/svg"
   xmlns:sodipodi="http://sodipodi.sourceforge.net/DTD/sodipodi-0.dtd"
   xmlns:inkscape="http://www.inkscape.org/namespaces/inkscape"
   inkscape:version="1.0 (4035a4fb49, 2020-05-01)"
   sodipodi:docname="eye_2.svg"
   xml:space="preserve"
   style="enable-background:new 0 0 512 512;"
   viewBox="0 0 512 512"
   y="0px"
   x="0px"
   id="Layer_1"
   version="1.1"><metadata
   id="metadata11"><rdf:RDF><cc:Work
       rdf:about=""><dc:format>image/svg+xml</dc:format><dc:type
         rdf:resource="http://purl.org/dc/dcmitype/StillImage" /><dc:title></dc:title></cc:Work></rdf:RDF></metadata><defs
   id="defs9" /><sodipodi:namedview
   inkscape:current-layer="Layer_1"
   inkscape:window-maximized="1"
   inkscape:window-y="-8"
   inkscape:window-x="1912"
   inkscape:cy="202.38494"
   inkscape:cx="340.35436"
   inkscape:zoom="1.2291505"
   showgrid="false"
   id="namedview7"
   inkscape:window-height="1057"
   inkscape:window-width="1920"
   inkscape:pageshadow="2"
   inkscape:pageopacity="0"
   guidetolerance="10"
   gridtolerance="10"
   objecttolerance="10"
   borderopacity="1"
   bordercolor="#666666"
   pagecolor="#ffffff" />
<g
   style="fill:#dcdcdc"
   id="g4">
	<path
   style="fill:#dcdcdc"
   id="path2"
   d="M332.7,256c0,40.7-34.4,73.6-76.9,73.6S179,296.6,179,256c0-40.7,34.4-73.6,76.9-73.6S332.7,215.3,332.7,256z M256,102.6   c-44,0.2-89.5,10.9-132.7,31.4c-32,15.8-63.2,38.2-90.3,65.8C19.7,213.9,2.7,234.2,0,256c0.3,18.8,20.5,42.1,33,56.2   c25.4,26.5,55.8,48.2,90.3,65.8c40.2,19.5,84.7,30.8,132.7,31.4c44-0.2,89.6-11,132.6-31.4c32-15.8,63.3-38.2,90.3-65.8   c13.3-14.1,30.3-34.5,33-56.2c-0.3-18.8-20.5-42.1-33-56.2c-25.4-26.5-55.8-48.2-90.3-65.8C348.4,114.5,303.8,103.3,256,102.6z    M256,140.7c66.6,0,120.6,51.6,120.6,115.3s-54,115.3-120.6,115.3S135.4,319.7,135.4,256S189.4,140.7,256,140.7z" />
</g>
</svg>
